<?xml version="1.0" encoding="utf-8"?>
<!-- Generator: Adobe Illustrator 15.0.0, SVG Export Plug-In . SVG Version: 6.00 Build 0)  -->
<!DOCTYPE svg PUBLIC "-//W3C//DTD SVG 1.1//EN" "http://www.w3.org/Graphics/SVG/1.1/DTD/svg11.dtd">
<svg version="1.1" id="Layer_1" focusable="false" xmlns="http://www.w3.org/2000/svg" xmlns:xlink="http://www.w3.org/1999/xlink"
	 x="0px" y="0px" width="1280px" height="1311.3px" viewBox="0 304.4 1280 1311.3" enable-background="new 0 304.4 1280 1311.3"
	 xml:space="preserve">
<path fill="#536399" d="M871.4,1586.5c-285.9-134-571.9-268-857.8-402c-8.2-3.8-13.5-2.7-9.5-11.1c8.8-18.7,17.6-37.5,26.3-56.2
	C67.7,1037.6,105,958,142.3,878.5C224.1,704,305.8,529.5,387.6,355c7-14.9,14-29.8,20.9-44.7c1.5-3.2,19,7.2,21.8,8.5
	c65.1,30.5,130.3,61,195.4,91.6c185,86.7,370,173.4,554.9,260c32.8,15.4,65.6,30.7,98.4,46.1c-134,285.9-268,571.9-402,857.8
	C875.2,1578.4,873.3,1582.5,871.4,1586.5L871.4,1586.5z"/>
<g id="Layer_7">
	<path fill="#D19F76" d="M1017.2,400.3c18.9,3.8,33.6,18,53.4,12.1c12.2-3.6,32.5,16.1,42.2,22.9c6.5,4.6,10.1,11.1,16.2,16
		c7.5,5.9,17.8,5.8,25.7,11.4c12.5,9,35,7.1,44,20.8c10.1,15.3,0.2,39.4,11.3,57.4c11,17.8,28,32.2,34.8,52.5
		c14.1,41-8.4,89.4-26.9,125.5c-14.8,28.9-42.5,74.9-67.3,28.1c-28-52.8-45.8-110.2-70.1-164.7c-20-45.1-44.9-89.5-81.1-123.7
		c-9.2-8.6-42.5-22.9-29.8-36C981.3,410.5,999.4,396.7,1017.2,400.3C1029,402.7,1003.2,397.4,1017.2,400.3z"/>
	<path fill="#C99876" d="M643.7,366.1c131.4-26.1,292.1,4.2,400.5,85.1c54.2,40.4,79.5,97,99.1,159.8
		c23.5,75.6,35.8,148.6,36.1,227.9c0.2,74.5,3.9,147.4-13,220.4c-8.2,35.5-8.3,70.9-9.1,107.1c-0.9,37.4-8.6,71.9-17.6,108
		c-8.6,34.8-7.8,69.2-11.7,104.5c-3.9,35.3-19.5,67.2-29,101c-9.7,35.9-11.8,73.3-12.4,110.3c-0.1,8.3-0.2,16.5-0.2,24.8
		c-8.7,1.9-18.1-0.5-25.2-5.6c-10.8-7.7-16.2-22.6-29.3-4.6c-25-25.5-47-54-65.6-84.5c-10.4-16.7-19.9-30.2-38.5-38.2
		c-15.9-6.8-33.2-9.9-47.9-19.3c-32.8-21.2-19.2-51.2,3.3-73.7c23.6-23.6,38.7-48.6,47.6-81c7.9-28.8,11.5-58.6,17.8-87.8
		c7.9-36.5,22.6-70.5,37.4-104.6c33.2-76.6,43.1-153.6,44.8-236.6c1.6-75.3,4.2-151.5-33.4-219.4c-35.5-64.2-84.8-126.2-157.4-148
		c-80.1-24-169.3-28.2-252.3-23.3c-80.5,4.7-148.7,14.7-203.7,78.1c-2.3-51.5,47.9-93,85.3-120.4C521.8,407.3,579.6,379,643.7,366.1
		C746.9,345.5,593.9,376.1,643.7,366.1z"/>
	<path fill="#D19483" d="M353.2,763.5c-3.7,43.6-4.8,85.3,0.9,128.7c4.9,37.4-3.6,78.6,5.2,114.9c8.4,34.6,23.4,60.8,26.9,97.3
		c4.1,42.6,11.8,84.8,22,126.4c16.9,68.6,40.8,135.1,60.9,202.8c3.3,11.2,3.3,36.4,20,27.3c9.4-5.2,14.3-16.7,19.8-25.3
		c19.3-30,43.2-12.9,71.8-9.5c27.8,3.3,37.2-20.5,53.7-36.6c3.7-3.7,7.9-6.7,12.5-9.2c13.2-7.2,6.7-14.6,4.1-28.7
		c-3.9-20.7-8.5-41.2-13.6-61.6c-21.6-85.9-52.7-169-81.4-252.7c-26-77.2-51.6-154-98.9-221.3c-22.6-32.2-43.9-63.2-55.6-101.2
		c-8.8-28.6-12.1-73.7-34.7-95.5C353,665.8,357.3,715.6,353.2,763.5C350.6,794.3,357.1,717.7,353.2,763.5z"/>
	<path fill="#C99876" d="M1173.3,735.9c-10.1,0-30.5-39-35.1-47.1c-10.7-18.9-21.4-40.7-23.1-62.7c-1.8-22.9,10.2-43.3,24-60.4
		c3.5-4.4,40.2-43.4,44.3-37.4c0.4,0.6-37.3,35.4-41,40c-13.2,16.3-24.9,35.8-23.1,57.6c1.7,21.3,12.2,42.5,22.5,60.8
		C1145.8,693.5,1173,735.9,1173.3,735.9C1172.8,735.9,1173.8,735.9,1173.3,735.9z"/>
	<path fill="#C99876" d="M1066.4,683.5c-8.2,0-19.1-48.3-20.8-55.5c-4.4-19.1-7.7-39.9-5.2-59.5c2.8-21.9,16-38.4,32.8-51.8
		c5.2-4,58.8-37.8,61.5-29.8c0.3,0.9-45.4,23.5-50.4,26.9c-17.3,11.9-33.9,27.4-38.6,48.7c-4.7,20.9-0.8,44.1,4,64.7
		C1051.3,633.7,1066.7,683.5,1066.4,683.5C1065.6,683.5,1066.7,683.5,1066.4,683.5z"/>
	<path fill="#C99876" d="M1108.8,716.7c-7.2,0-75.3-8.8-71.8-17.5c0.3-0.8,49.9,11.8,55.9,12.5c19.8,2,41.5,1.4,58.5-10.4
		c13-9,70.8-106,64.1-107.8c9.7,2.6-31.6,77.7-36.5,84.6C1161.1,702.9,1140.1,716.7,1108.8,716.7
		C1107,716.7,1123.9,716.7,1108.8,716.7z"/>
	<path fill="#C99876" d="M954.2,611c-8.1,0-9.2-50.8-9-57.3c0.5-21.1,3.9-43,18.5-59.3c10-11.2,116.1-62.8,118.2-47.2
		c-0.9-7-104.4,38.2-115,50c-13.9,15.5-17,36.6-17.5,56.7C949.2,560.2,954.2,611,954.2,611C953.3,611,954.4,611,954.2,611z"/>
</g>
<g id="Layer_10">
	<path fill="#C99876" d="M346.9,762.7c-2.5,124.3-4.8,249.2,10.8,372.8c15.4,121.8,59.4,240.2,61.6,363.6
		c83.5-5.8,117.1-88.3,131.7-158.9c18.6-90.1-7.5-171.1-34.1-256.6C464.8,916.2,394,756,379.3,578.9
		C344,632.4,348,701.5,346.9,762.7C344,908.6,347.9,705.1,346.9,762.7z"/>
</g>
<g id="Layer_5">
	<path fill="#EEBEAB" d="M756.9,412.4c-43.8-2.2-90.6-5.4-134.1,1.8c-42.8,7.1-88.4,31.5-124.3,55.3
		c-71.7,47.6-103.1,123.1-113,205.8c-5.4,45.1-5.9,91-1.5,136.2c4.5,47.2-1.9,94.3,10.8,140.7c10.8,39.4,32.9,78.8,56.6,111.8
		c24.6,34.2,46.1,66.6,76.4,96.8c12.6,12.6,25.3,25.5,33.9,41.2c8.8,16,11.3,34.4,19.6,50.6c7,13.7,27.3,14.7,32.4,28.3
		c6.9,16.5-5.7,39.9-0.6,58.1c9.6,34.4,67.6,51.5,97.2,61.3c45.1,15,99.3,18.7,146.2,10c91.7-17.1,115.8-115.3,136.1-190.6
		c5.9-21.8,9.8-44,13.6-66.2c3.3-19.6,3.6-45.7,15.2-62.4c23.3-33.3,34.4-86.6,45.5-125.4c36.8,29.4,41.6-53.3,41.4-67.3
		c-0.3-17.4-1.3-34.9-3-52.2c-1.6-16.6-15.4-14.9-20.3-27.4c-26.4-67.1-3.6-140.9-19-209.9c-12.5-56.2-75.8-87.3-120.9-114
		c-31.1-18.4-64.1-33.5-97.4-47.5C820.4,436,787,414,756.9,412.4C726.1,410.9,777.2,413.5,756.9,412.4z"/>
</g>
<g id="Layer_8">
	<path fill="#D19F76" d="M628.7,474.6c103.5-7.7,193.7,16.5,275.2,81.6c68.3,54.5,148.2,129.1,153.1,221.5
		c1.6,29.3-9.4,148.6,42.6,80.7c12.3-16.1,23.3-32.8,35.4-49.1c11.1-14.9,29.8-24.1,39-40.2c9.6-16.7,1.1-42-2-59.4
		c-5-27.6-11.5-55-19.4-81.9c-12.9-43.8-28.1-89.9-50.9-129.6c-21.4-37.4-61.8-60.5-90.2-92.3c-27.3-30.6-52.6-56.2-92.6-69.4
		c-43.5-14.4-92.1-17.8-137.1-25.4c-45.5-7.6-92.6-10.4-137.8,0.5c-48.8,11.8-90.2,40.8-129.2,71.2
		c-64.4,50.3-125,102.7-144.1,185.7c-3.9,17-6.6,37.4,1.8,53.6c31.5-36,48.7-80.7,92.5-103.5C516.1,492,571.4,479.4,628.7,474.6
		C671.3,471.4,578.9,478.8,628.7,474.6z"/>
</g>
<g id="Layer_4">
	<path opacity="0.36" fill="#CF948A" enable-background="new    " d="M802.8,819.6c34.5,11.5,72-4.1,107.2,2.1
		c4.9,0.9,57.4,8.8,39.2,16.1c-18.3,7.3-35.1,16.2-54.2,23.3c-37.3,13.9-76,2.9-111.2-15.3c-6.3-3.2-33.3-17.6-34.1-25.4
		C747.8,802.2,798.2,818.1,802.8,819.6C811.5,822.5,793.8,816.7,802.8,819.6z"/>
	<path opacity="0.62" fill="#FFB69F" enable-background="new    " d="M734,810.9c-26.4,10.6-24.2,73.4-17.3,94.4
		c11.1,34.3,48.7,63.8,79.8,80.2c34.1,17.7,83.8,21.4,121.8,21.4c42.1,0.1,77.8-14,105-47.1c24.2-29.4,28.1-86.8,23.2-122.9
		c-1.9-14.2-5.6-43.4-26.6-39.8c-19.9,3.4-44.4,14.1-60.6,26.1c-37.2,27.9-64.4,46.5-113.4,44.4c-22.6-1-40.6-11.5-59.5-22.8
		C769.3,834.7,753.6,815.7,734,810.9C724.8,814.6,748.2,814.4,734,810.9z"/>
	<path opacity="0.21" fill="#CF948A" enable-background="new    " d="M604.4,892.6c-15.9,17.7-14.9,42.2-34.7,58.4
		c-19.3,15.8-54.2,20.7-68.3,41.4c-13,19.5,2.5,42.4,14.7,57.4c18.5,22.7,28.5,46.1,36.6,74c13.2-24.4,19.2-45.9,14.1-73.5
		c-4.1-22.1,13.8-32.4,24.2-51.5c10-18.5,16.2-46.8,21.5-67.2C614.4,924.5,601,896.7,604.4,892.6
		C595.5,902.6,603.1,894.2,604.4,892.6z"/>
	<path opacity="0.21" fill="#CF948A" enable-background="new    " d="M744.3,976.6c2,25.4,34.5,47,52.5,62.4
		c23.4,20.1,28.6,28.3,0.1,47.9c-30.8,21.2-0.7,15.9,10.7,37.4c8.3,15.4,17.3,68.9,29.4,20.1c5.7-23.2,27.1-68.8,14.2-91.5
		c-12.3-21.6-38.3-36.9-55.8-54.2c-17.7-17.5-26-36.6-38.5-57.2C741.4,916.2,743.9,970.4,744.3,976.6
		C744.6,980,743.8,967.9,744.3,976.6z"/>
	<path opacity="0.73" fill="#F6CEBD" enable-background="new    " d="M611,927.3c-25.3,3.4-33,44.1-14,59
		c8.8,6.9,20.6,6.6,30.6,11.1c13.9,6.6,26.8,23.4,43,11.2c23.8-18,60.9,4.2,80.1-15.4c22.4-22.9-6.5-53.6-17.7-73.2
		c-17.3-31.2-11.6-62.9-13.4-96.6c-1.1-20.9-38.5-49.1-59.1-43.4c-24.5,6.8-55.8,26.6-57.3,54.7C601.5,863.1,602.4,899.9,611,927.3
		C597.3,929.2,603.9,904.7,611,927.3z"/>
	<path opacity="0.36" fill="#CF948A" enable-background="new    " d="M604.2,805.4c-1.4-12.9-21.9,5.5-28.5,5.8
		c-19.7,0.9-39.6,3.4-59.3,0.6c-12.3-1.8-33.4-23.3-43.1-20.1c-3.6,0.9-45.2,15.8-38.1,22c9.6,8.4,30.6,15.5,42.4,21.3
		c17,8.4,40.2,14.4,59,14.3C567.5,849.1,609,844.2,604.2,805.4C603.9,803,605,811.7,604.2,805.4z"/>
	<path opacity="0.62" fill="#FFB69F" enable-background="new    " d="M586.8,840.4c-24.4,15.1-68.8,11-93.6-0.6
		c-25.8-12-49-35.8-79.1-35.5c-53.7,0-27.4,152.8-2.4,178.7c19.7,20.3,48.7,26.2,75.9,24.2c31.1-2.2,62.6-30.5,85.7-50.3
		c28.4-24.4,32-53,35.2-88.9c0.7-8.3,7-34.1,0.6-42.1C602.5,817.9,590.8,837.7,586.8,840.4C577.8,846,591,837.5,586.8,840.4z"/>
	<path opacity="0.62" fill="#FFB69F" enable-background="new    " d="M644,661.3c-16.1,12.5-51.8,26.9-32.5,47.1
		c18.9,19.9,42.2,16.7,68.8,16.3c38.3-0.6,5.7-37.1,6.3-57.7C687.3,637.1,658,650.4,644,661.3C631,671.3,652.1,655,644,661.3z"/>
	<path opacity="0.62" fill="#FFB69F" enable-background="new    " d="M710.3,1186.5c-20.8-5.5-87.4-6.4-59.9,34.1
		c17.8,26.1,72.1,17.4,99.3,22.7c20.4,3.9,75.6-17.2,67.8-46.4c-4.4-14.9-33-7.1-42.4-5.3C750.9,1195.9,733.6,1193.2,710.3,1186.5
		C702.4,1184.4,724,1190.5,710.3,1186.5z"/>
	<path opacity="0.62" fill="#FFB69F" enable-background="new    " d="M664.8,1018.2c1.7,29.3,6.2,34.8-24.5,32.1
		C643.5,1040.9,654.9,1018.2,664.8,1018.2C665.3,1027.2,661.1,1018.2,664.8,1018.2z"/>
	<path fill="#FFE4D8" d="M873.9,820.4c-5.1-22.3-18.8-64.1-46.9-59.5c-10.9,1.8-20.6,8.5-28.7,15.7c-9,8.1-16.9,28.4-27.9,33.2
		c20.7,0,41.3,13.3,63.1,14.1C836.3,824,874.5,823.2,873.9,820.4C870.2,804.3,874.4,822.8,873.9,820.4z"/>
	<path fill="#FFE4D8" d="M870.5,819.9c20.4,0.8,53.9-6.7,71.4-17.6c-4.7,2.9-25.9-7.5-31.7-8.5C894.8,791.2,883.8,814.2,870.5,819.9
		C877.6,820.1,877.3,817,870.5,819.9z"/>
	<path fill="#FFE4D8" d="M541,754c-20.3-4.3-45.9,7.2-62.2,18.4c-21.3,14.9,22.1,35.6,33.3,38.1c10.9,2.4,71.6,11.1,65.7-12.6
		C571.1,776.8,565.3,759.6,541,754C536,753,546.8,755.4,541,754z"/>
	<path opacity="0.35" fill="#CF948A" enable-background="new    " d="M868.9,1195.2c24.9-21,51.3-20.3,78.2-35.5
		c30.3-17.1,48.4-47.9,73.5-70.9c-8,9.4-4.8,22.9-10,33.4c-5.9,11.5-19.4,17.3-28.2,26.2c-21.6,21.9-43.5,42.1-65.7,63.3
		c-17.3,16.6-25.8,43.1-47.8,54.5c-27.3,13.9-67.4,5.8-97.4,12.9c15.7-3.5,31.4-24.1,42.7-34.4
		C832.3,1228.1,850.5,1211.6,868.9,1195.2C879.1,1186.5,861.2,1202,868.9,1195.2z"/>
	<path opacity="0.35" fill="#CF948A" enable-background="new    " d="M720.3,1295.3c19.8,0,35-14.7,53.7-18.7
		c0.4,0.4-38.3,18.8-42.2,20.5c-17.4,7.8-35.7,7.6-54.4,5.3c-22.8-2.7-76.8-6.8-83.1-36.6c13.7,14.6,31.2,14.7,49.3,19.2
		C670.1,1292.9,692.8,1295.3,720.3,1295.3C724.8,1295.3,715.1,1295.3,720.3,1295.3z"/>
</g>
<g id="Layer_6">
	<path fill="#D19483" d="M577.1,1039.5c2.5-2.1,21.3,6.8,25,7.4c16.6,2.8,33.1,6.3,49.8,8.6c19.7,2.7,39.1,2.3,58.8,1.8
		c34.9-0.8,71.3-3.7,106.1,0.1c17.8,1.9-12.3,37.1-17.2,41.4c-26.2,22.8-61,24.1-94,25.8c-33.1,1.7-69-0.8-96.3-21.6
		C601.6,1097.2,568,1048.5,577.1,1039.5C578.6,1038.2,576.3,1040.3,577.1,1039.5z"/>
	<path fill="#2F1200" d="M577.6,1039.5c11.8,18.8,15.9,43.5,37.5,54.4c22.8,11.6,54.4,11.9,79.4,13.2c35.6,1.9,122.1,5.9,126.2-47.3
		C750.3,1075.2,639.2,1084.9,577.6,1039.5C587.9,1055.9,610.5,1063.8,577.6,1039.5z"/>
	<path fill="#F0EFEC" d="M602.3,1053.2c-7.8,26,58.1,35.4,74.7,37.3c36.3,4,69.4-5.3,104.2-13c24.2-6.6,20.3-13.7-3.3-11.9
		c-21.8,1.7-43.5,3.2-65.4,3.2C673.5,1068.9,639.6,1064.7,602.3,1053.2C600.8,1058.5,609.2,1055.3,602.3,1053.2z"/>
</g>
<g id="Layer_3">
	<g>
		<path d="M601,855.7c1.2,2.9,1.1,4.3-0.5,4.2C600.7,858.5,600.8,857.1,601,855.7C601,857,600.8,857,601,855.7z"/>
	</g>
	<path d="M787.2,803.3c28.4-33.1,53.6-32.5,92.3-13c17.4,8.8,36.6,18.3,56.8,15.9c25.2-3.2-11.8-21.2-15.8-24.5
		c-26.4-21.8-59.9-29.7-94.1-25.9c-14.7,1.6-29.9,8-38.6,20.5c-2.1,3.1-18.6,33.3-17.9,35.2C771.4,816.1,785.9,804.8,787.2,803.3
		C792,797.8,782.7,808.6,787.2,803.3z"/>
	<path d="M579.2,777.7c-20.6-17.7-52.7-19.6-75.7-5.5c-10.2,6.2-17.6,18.4-30.1,20.3c-13.7,2.1-19.8-12.2-12-22.5
		c17.1-22.4,64.7-24.9,89.3-19c12.1,3,58.4,26.2,48.7,45.6C591.2,792,586.3,783.7,579.2,777.7C556.2,758,586,783.5,579.2,777.7z"/>
	<path d="M820.9,782.2c-2.1,17.8,2.1,35.7,22.1,38.7c18.4,3.1,50.5,5.6,58.2-17.6C914,766.1,824.5,741.4,820.9,782.2
		C819.9,791.2,821.5,776.2,820.9,782.2z"/>
	<path d="M539.9,763.5c-6.5,6.4-9.7,31.6-5,39.8c6.2,12.8,31.1,10.1,42.4,9.2C632.8,808.8,563.4,734.2,539.9,763.5
		C539.4,764,550.5,750.4,539.9,763.5z"/>
	<g>
		<g>
			<path d="M1027.4,843.6c-1.7-82.2-71.7-137.8-149.9-140.5c-86.1-2.9-156.5,55.1-162.2,143.1c-26-22-75-24.8-103.8-5.5
				c-1.7-65.9-39.4-125.1-104.9-142c-62.6-16.1-128.9,0.7-171,51c-43.8,52.4-48.4,129.8-14.9,188.8c33.6,59.1,113.9,79.3,177.5,61.8
				c66.7-18.6,108-75,112.5-142c13.3-24.5,66.6-23.9,87.7-11.1c19.7,11.9,15.4,22.6,18.2,43.2c2.7,19.5,11.8,34.3,24,49.3
				c39.9,49.7,111.5,91,177.7,72.4C989,992.3,1029.2,913.9,1027.4,843.6C1026.9,817.8,1028.2,874.1,1027.4,843.6z M601,855.7
				c0,78.1-68.3,138.8-144.6,137.2c-40.1-0.8-79.1-4.2-108.1-35c-30.1-31.9-43.3-78-39-121.2c7.7-77.3,74.1-136,151.6-134.7
				C547.6,703.6,607.2,768.3,601,855.7C601,857,603.4,822,601,855.7z M926.6,997.9c-70.9,21-178.9-22.7-198.3-100.9
				c-17.7-71.1,21-163.7,98-180.1c81-19.9,170.9,20.7,188.3,105.7C1027.3,885.4,991.6,977.2,926.6,997.9
				C919.4,1000,981.9,980.3,926.6,997.9z"/>
		</g>
		<path fill="#FFFFFF" d="M853.6,725.3c-5.4,0-22.8,9.4-9.4,14c15.2,5.3,36.3-1,52.3,0.2c31.3,2.4,54.6,23.8,75.6,45.1
			C957.7,737.4,896.5,724.5,853.6,725.3C850.2,725.3,894.9,724.5,853.6,725.3z"/>
		<path fill="#FFFFFF" d="M452.5,712.4c-38.5,5.8-77.2,19.1-92.7,58.5c17.9-6.6,29.5-23.1,44.8-33.7c16.4-11.4,37.2-15.2,56.9-15.9
			c6-0.2,37.4,7.7,39.3-0.8C503.8,706.6,457.1,711.7,452.5,712.4C431.4,715.6,464.9,710.6,452.5,712.4z"/>
	</g>
</g>
<g id="Layer_9">
	<path fill="#C99876" d="M494.9,393.7c-69,27-94.2,81.8-119.3,147.6c-25.7,67.5-43.5,140.4-34,213c11.3-13.7,22.4-27.4,33.7-41.1
		c0.6,4.8,1.2,9.7,1.8,14.5c22.8-17.2,44.1-36.5,63.2-57.7c3.1,16.8,8.9,33,16.6,48.2c51.1-39.1,139-37.3,165.9-105.1
		c5.8,20,11.3,40,16.9,60c26.2-24.4,48.8-52.7,66.6-83.8c16.9,40.9,33,82.3,47.7,124c6.4-5.7,12.9-11.5,19.3-17.3
		c14.4-13,14.5-4.6,27.5,6.6c17.8,15.5,35.6,30.9,53.3,46.5c14.5-21.4,27.4-44,37.4-68c21.9,21.9,41.4,46.2,57.9,72.4
		c9.4-10.7,18.5-21.7,27.9-32.4c31.9,39.4,53.5,87.1,62.4,137c8.1-11.6,15.8-23.5,24-35c-0.8,19.9,2.6,40,10.3,58.5
		c25.7-14.8,14.4-81.1,16.6-105.5c2.2-23.8,5.9-49.3,1.5-73c-4.4-23.6-12.4-44.7-14-68.9c-3.2-47.4-33.4-79.3-56.8-118.3
		c-20.2-33.8-43.2-58.9-74.1-82.9c-54.6-42.6-127-72-196-79.2C661.1,344.7,578.1,361.3,494.9,393.7
		C472,402.7,527.3,381.1,494.9,393.7z"/>
</g>
</svg>
