<?xml version="1.0" encoding="utf-8"?>
<!-- Generator: Adobe Illustrator 15.0.0, SVG Export Plug-In . SVG Version: 6.00 Build 0)  -->
<!DOCTYPE svg PUBLIC "-//W3C//DTD SVG 1.1//EN" "http://www.w3.org/Graphics/SVG/1.1/DTD/svg11.dtd">
<svg version="1.1" focusable="false" xmlns="http://www.w3.org/2000/svg" xmlns:xlink="http://www.w3.org/1999/xlink" x="0px" y="0px" width="1280px"
	 height="1277.6px" viewBox="0 321.2 1280 1277.6" enable-background="new 0 321.2 1280 1277.6" xml:space="preserve">
<g id="centerE">
	<g id="brownBox">
		<path fill="#CC796C" d="M630.4,1164.4L383,917c-24.9-24.9-24.9-65.9,0-91l220.9-220.9c24.9-24.9,65.9-24.9,91,0L942,852.4
			c24.9,24.9,24.9,65.9,0,91l-220.9,221.1C696.3,1189.3,655.3,1189.3,630.4,1164.4z"/>
	</g>
</g>
<g id="sideE">
	<g id="brownLeg">
		<path fill="#CC796C" d="M569.1,1571.9l-409.9-409.9c-30.7-30.7-30.7-80.9,0-111.7L605.3,605c30.7-30.7,69.6-19.5,100.4,11.3l0,0
			l-410.6,410.4c-30.7,30.7-42,92-11.3,123l424.4,421.6v0.8C677.4,1603,608.2,1611,569.1,1571.9z"/>
	</g>
</g>
<g id="sideD">
	<g id="greyLeg">
		<path fill="#FCCBB0" d="M711.7,351.5l535.6,535.6c40.2,40.2,40.2,105.6,0,146l-535.6,535.6c-40.2,40.2-105.6,40.2-146,0v-1
			l534.6-534.6c40.2-40.2,40.2-105.6,0-146L565.8,352.5v-1C606.1,311.1,671.4,311.1,711.7,351.5z"/>
	</g>
</g>
<g id="topD">
	<g id="pinkLeg">
		<path fill="#FCCBB0" d="M30.1,887.1l535.6-535.6c40.2-40.2,105.6-40.2,146,0l535.6,535.6c40.2,40.2,40.2,105.6,0,146h-1
			L711.7,498.5c-40.2-40.2-105.6-40.2-146,0L31.4,1033.1h-1C-10,992.7-10,927.3,30.1,887.1z"/>
	</g>
</g>
</svg>
